<svg xmlns="http://www.w3.org/2000/svg" xmlns:xlink="http://www.w3.org/1999/xlink" width="500" zoomAndPan="magnify" viewBox="0 0 375 374.999991" height="500" preserveAspectRatio="xMidYMid meet" version="1.0"><defs><g/></defs><path stroke-linecap="butt" transform="matrix(0.75, 0, 0, 0.75, -92.583138, 96.275934)" fill="none" stroke-linejoin="miter" d="M 185.345238 194.814393 C 206.43899 194.814393 238.188992 176.777933 253.173368 163.361266 C 265.022327 153.298765 275.459827 141.668556 285.522328 129.74668 C 285.819203 129.147722 286.412953 128.553972 286.715036 127.955013 C 287.011911 127.658138 287.683787 127.064388 287.980662 126.392513 C 288.876495 124.600847 288.876495 123.038347 287.308786 121.845638 C 286.715036 121.24668 285.819203 120.949805 284.92337 120.949805 C 284.251495 120.949805 283.657745 121.24668 282.761911 121.548763 C 281.866078 122.439388 280.600453 123.632097 279.704619 124.600847 C 278.813994 125.793555 277.543161 127.064388 276.652536 127.955013 C 255.261909 153.298765 232.97545 173.126891 201.522323 183.783142 C 195.782739 185.944601 190.563988 186.840434 186.017113 186.840434 C 172.824404 186.538351 162.761903 181.6946 156.652528 169.772725 C 150.840028 159.111266 149.647319 148.080015 150.840028 136.824806 C 156.652528 87.632094 178.340029 37.845633 222.616074 13.772714 C 228.428574 11.012297 233.9442 8.850839 239.3817 7.361256 C 241.543158 7.064381 243.03795 6.767506 244.60045 6.767506 C 252.204618 6.767506 256.230659 11.309173 256.824409 20.481048 C 257.423368 24.428965 257.121285 28.751882 255.558784 33.298757 C 251.011909 50.366467 238.78795 67.809176 228.131699 81.522719 C 226.563991 83.085219 226.267116 84.277927 226.860866 85.845636 C 227.162949 86.439386 228.131699 86.741469 229.022324 86.741469 C 231.183783 86.741469 232.97545 85.173761 234.241075 83.085219 C 246.465034 67.512301 258.912951 51.038342 263.532743 31.434174 C 265.022327 25.69459 265.022327 20.481048 263.829618 15.559173 C 261.371285 3.413339 254.959826 -1.211662 242.735867 -1.211662 C 215.605657 1.84563 186.313988 27.486257 172.230654 50.366467 C 158.215028 71.757093 142.938985 114.168554 142.938985 140.178973 C 142.636902 155.085224 145.100444 167.012308 152.105653 177.668558 C 159.407736 189.595643 171.928571 194.814393 185.345238 194.814393 Z M 272.402536 194.215435 C 274.188994 194.215435 275.756702 193.246684 276.652536 191.757101 C 278.813994 188.402934 280.600453 185.647726 282.168161 182.293559 C 284.92337 177.074808 287.308786 172.231058 289.76712 167.309183 C 291.928578 162.465432 294.386912 157.548765 296.772329 152.699807 C 300.501496 145.621681 304.751496 138.913348 310.563996 133.100847 C 311.756705 131.611264 312.949413 130.043555 315.704622 130.043555 C 316.673372 131.30918 317.27233 132.501889 317.86608 133.772722 C 318.465039 134.965431 319.355664 136.158139 320.324414 137.423764 C 323.678581 141.970639 327.631706 144.132098 332.850456 144.132098 C 341.345248 144.132098 354.162958 134.069597 359.980666 128.257097 C 360.949416 127.361263 361.840041 126.095638 362.735875 124.303972 C 363.334833 123.038347 363.03275 121.845638 361.840041 120.580013 C 360.949416 119.981055 360.277541 119.68418 359.381708 119.68418 C 358.787958 119.68418 358.485875 119.68418 358.188999 119.981055 C 356.626499 120.949805 355.433791 121.845638 354.162958 123.038347 C 349.022332 127.361263 338.287957 136.158139 332.850456 136.158139 C 330.090039 136.158139 327.631706 134.366472 325.470247 130.71543 C 324.871289 129.74668 324.277539 128.553972 323.980664 127.064388 C 323.381706 125.793555 322.787955 124.600847 322.11608 123.632097 C 320.626497 121.24668 318.761914 119.981055 316.376497 119.981055 C 315.110872 119.981055 313.918163 120.27793 312.64733 120.949805 C 303.183788 126.689388 295.881704 137.126889 291.032745 146.590431 L 279.110869 170.66335 L 278.813994 170.366475 L 279.110869 170.366475 C 277.543161 167.012308 278.511911 163.955016 279.407744 160.600849 C 281.866078 151.434182 285.220245 141.970639 289.17337 132.501889 C 291.928578 126.392513 294.688995 120.27793 297.074412 114.168554 C 298.043162 111.783137 298.636912 109.621679 298.636912 107.46022 C 298.933787 105.970637 298.340037 105.074804 296.475454 104.402929 L 295.57962 104.402929 C 294.386912 104.402929 293.418162 104.777929 292.824412 105.371679 C 291.928578 106.564387 291.334828 108.132096 290.366078 109.621679 C 279.704619 134.069597 271.13691 154.194599 267.183785 181.397725 C 266.88691 182.887309 266.88691 184.080017 266.88691 185.345642 C 267.183785 186.840434 267.183785 188.106059 267.183785 189.298768 C 267.48066 191.757101 268.751494 193.246684 270.834827 193.918559 C 271.13691 193.918559 271.433785 193.918559 271.433785 194.215435 C 271.803577 194.215435 272.10566 194.215435 272.402536 194.215435 Z M 362.173375 176.178975 C 383.189001 176.178975 415.241087 145.022723 429.923379 129.449805 C 431.116088 128.257097 432.011921 127.361263 432.381713 126.392513 C 433.277546 124.90293 432.980671 123.335222 431.412963 121.845638 C 430.819213 121.24668 430.220254 120.949805 429.324421 120.949805 C 428.657754 120.949805 427.761921 121.24668 426.866087 121.845638 C 425.970254 122.741471 425.001504 123.632097 424.110879 124.600847 C 423.215045 125.49668 421.94942 126.392513 421.053587 127.361263 C 417.402545 130.71543 413.751503 134.069597 410.397336 137.423764 C 406.741086 140.777931 403.017127 144.428973 399.366086 147.78314 C 390.496293 156.053974 376.480667 165.819599 364.256708 168.205016 C 358.444208 168.205016 355.090041 168.205016 353.897333 161.199807 C 352.334832 157.246682 352.032749 153.892515 353.001499 150.538348 C 353.303582 148.975848 354.194208 148.080015 355.386916 147.78314 C 370.074417 146.293556 389.303585 128.257097 391.761918 113.272721 C 392.657752 106.267512 388.704626 102.017512 382.595251 102.017512 C 382.298376 102.017512 381.699418 102.017512 381.402543 102.017512 C 381.027543 102.319595 380.433793 102.319595 380.136918 102.319595 C 363.959833 104.777929 352.032749 126.095638 346.892124 140.481056 C 345.626499 145.022723 344.43379 149.34564 344.730665 154.491474 C 344.43379 157.84564 345.329624 161.496682 346.595249 164.850849 C 348.678582 172.527933 353.897333 176.178975 362.173375 176.178975 Z M 359.412958 138.616473 C 359.116083 138.913348 358.444208 138.616473 357.548374 138.319598 C 357.251499 138.319598 356.954624 137.720639 356.954624 136.824806 C 360.308791 127.361263 370.668167 112.080012 380.730668 110.517512 C 382.298376 110.215429 383.189001 110.814387 383.485876 112.975846 C 383.485876 122.741471 367.314 134.366472 359.412958 138.616473 Z M 419.256712 185.944601 C 420.746295 185.944601 421.939004 185.345642 423.204629 184.080017 C 426.558796 181.397725 427.751504 178.043558 429.912963 174.314392 C 434.756713 165.819599 439.678588 156.949807 444.595255 148.080015 C 448.54838 141.074806 452.798381 134.366472 458.011923 128.257097 C 458.907756 127.361263 459.506714 126.095638 460.475465 124.600847 C 461.36609 123.335222 462.261923 123.038347 463.454631 123.335222 C 465.02234 123.632097 465.912965 124.90293 465.61609 126.392513 C 465.319215 127.955013 465.02234 129.449805 465.02234 130.71543 C 465.02234 135.262306 464.720256 139.882098 464.423381 144.428973 C 464.423381 149.34564 464.423381 153.59564 466.511923 158.142515 C 468.074423 160.303974 469.564007 161.199807 471.725465 161.199807 C 472.027549 161.199807 472.918174 160.902932 474.189007 160.600849 C 476.350466 159.710224 478.433799 158.142515 480.001507 156.652932 C 481.491091 155.085224 483.355674 153.298765 484.845258 151.731057 C 487.006716 149.647723 489.46505 147.184181 491.553592 145.022723 C 493.71505 142.939389 496.173384 140.777931 498.9338 139.210223 C 500.423384 140.178973 501.616092 141.668556 502.287967 143.236265 C 502.584842 144.725848 503.480676 146.293556 504.371301 147.78314 C 507.725468 153.00189 512.048385 155.387307 517.194218 155.387307 C 519.652552 155.387307 522.110885 155.085224 524.272344 154.194599 C 528.522344 152.03314 532.173386 149.944598 535.230678 147.486265 L 553.564012 131.908139 C 555.058804 130.71543 556.621304 129.147722 557.814013 127.658138 C 559.975471 125.49668 559.975471 123.632097 558.110888 121.845638 C 557.517138 120.949805 556.621304 120.27793 555.355679 120.27793 C 554.459846 120.27793 553.564012 120.949805 552.001512 121.845638 C 551.704637 122.741471 551.105679 123.038347 550.808804 123.335222 C 544.397345 129.147722 537.392136 135.262306 530.386927 141.074806 C 527.626511 143.236265 521.22026 147.486265 517.194218 147.486265 C 515.402551 147.486265 513.543176 146.590431 512.048385 144.725848 C 510.78276 143.236265 509.886926 141.668556 508.996301 139.507098 C 508.694218 138.616473 508.397343 137.720639 508.100468 136.824806 C 507.725468 135.856056 507.131718 134.965431 506.532759 134.069597 C 505.340051 131.30918 503.178592 130.043555 500.423384 130.043555 C 500.126509 130.043555 498.9338 130.418555 497.366092 130.71543 C 495.579634 131.611264 493.71505 132.803972 491.553592 134.366472 C 490.064008 135.856056 488.199425 137.720639 486.709841 139.210223 C 484.845258 140.777931 483.058799 142.564389 481.491091 144.132098 L 475.678591 149.647723 C 475.381716 149.647723 475.381716 149.647723 475.079632 149.944598 C 473.590049 149.944598 472.621299 149.34564 472.621299 148.080015 C 472.621299 147.184181 472.621299 145.918556 472.621299 144.725848 C 472.324424 143.53314 472.324424 142.267514 472.324424 141.074806 C 472.621299 138.616473 472.621299 136.158139 472.918174 133.772722 C 473.293174 131.30918 473.293174 128.850847 473.293174 126.095638 C 473.590049 122.439388 473.590049 118.788346 472.027549 115.434179 C 471.131715 112.678971 469.267132 111.189387 466.511923 111.189387 C 465.61609 111.189387 464.423381 111.486262 463.157756 112.080012 C 454.959839 117.892513 448.251505 127.064388 443.032755 135.262306 C 440.272338 139.507098 437.814005 143.830015 435.428588 148.080015 C 432.970254 152.699807 430.511921 156.949807 428.053587 161.199807 C 427.751504 161.496682 427.454629 162.168557 427.157754 162.762307 C 426.860879 163.361266 426.558796 163.658141 425.668171 163.658141 C 424.996296 163.658141 424.397337 163.658141 424.100462 163.361266 C 424.397337 162.762307 424.397337 162.168557 424.397337 161.496682 C 424.100462 160.902932 424.100462 160.303974 424.397337 159.408141 C 429.616088 134.965431 436.621296 110.517512 447.282755 88.231053 C 447.949422 86.741469 448.54838 85.470636 449.444214 83.981052 C 450.037964 82.788344 450.037964 81.225844 449.741089 79.731052 C 449.444214 78.762302 447.949422 77.272719 446.980672 77.272719 C 446.683797 77.272719 446.090047 77.569594 445.194214 77.871677 C 438.48588 81.225844 424.996296 125.199805 422.610879 133.100847 C 417.991087 148.678973 414.334837 164.850849 414.334837 181.10085 C 414.334837 183.486267 415.527545 185.048767 417.689003 185.647726 C 417.991087 185.944601 418.584837 185.944601 419.256712 185.944601 Z M 556.907763 173.720642 C 559.662971 173.720642 562.720263 172.824808 565.48068 171.262308 C 569.428597 168.580016 572.485889 165.225849 574.647347 160.600849 C 577.329639 154.788349 578.001514 148.975848 576.735889 143.236265 C 575.840055 138.017514 575.54318 138.017514 581.355681 137.126889 C 587.76714 136.455014 593.57964 134.965431 599.319224 132.803972 C 604.834849 130.71543 610.647349 128.850847 616.45985 126.689388 C 619.220267 125.793555 619.814017 124.007097 618.918183 121.845638 C 617.949433 120.27793 616.45985 119.387305 614.89735 119.387305 L 610.048391 120.580013 C 607.293183 121.548763 604.532766 122.741471 601.777557 123.632097 C 599.01714 124.600847 595.965057 125.793555 593.20464 126.689388 C 587.465056 128.553972 581.949431 129.449805 576.13693 129.449805 L 566.673388 129.449805 C 564.51193 129.74668 562.720263 131.908139 563.616096 134.069597 C 564.51193 136.158139 565.48068 138.017514 566.673388 140.178973 C 571.29318 147.184181 569.725472 153.59564 565.777555 160.007099 C 563.017138 164.850849 559.965054 165.522724 555.043179 165.522724 C 551.095262 164.553974 549.00672 160.902932 549.00672 155.085224 C 549.00672 151.731057 549.303595 148.678973 550.199429 146.293556 C 551.392137 141.074806 553.553596 135.856056 556.308804 130.71543 C 559.662971 125.49668 562.423388 120.27793 569.428597 119.085221 C 571.590055 118.788346 571.590055 117.225846 571.29318 115.137304 C 570.91818 113.569596 570.027555 112.376887 567.866097 112.080012 C 566.371305 112.080012 565.178596 112.376887 563.912971 112.975846 C 551.985887 117.595638 541.928595 140.481056 541.032761 153.00189 C 540.735886 155.387307 541.032761 158.142515 541.626512 160.902932 C 543.19422 169.173766 549.605679 173.720642 556.907763 173.720642 Z M 556.907763 173.720642 " stroke="#000000" stroke-width="4.19782" stroke-opacity="1" stroke-miterlimit="4"/><g fill="#000000" fill-opacity="1"><g transform="translate(14.61998, 238.025924)"><g><path d="M 31.828125 4.351562 C 47.625 4.351562 71.4375 -9.160156 82.65625 -19.234375 C 91.585938 -26.789062 99.371094 -35.488281 106.929688 -44.417969 C 107.15625 -44.878906 107.613281 -45.335938 107.84375 -45.792969 C 108.074219 -46.023438 108.53125 -46.480469 108.757812 -46.9375 C 109.445312 -48.3125 109.445312 -49.457031 108.300781 -50.371094 C 107.84375 -50.832031 107.15625 -51.058594 106.46875 -51.058594 C 106.011719 -51.058594 105.554688 -50.832031 104.867188 -50.601562 C 104.179688 -49.914062 103.265625 -49 102.578125 -48.3125 C 101.890625 -47.394531 100.976562 -46.480469 100.289062 -45.792969 C 84.261719 -26.789062 67.546875 -11.90625 43.960938 -3.890625 C 39.613281 -2.289062 35.71875 -1.601562 32.285156 -1.601562 C 22.4375 -1.832031 14.882812 -5.496094 10.304688 -14.425781 C 5.953125 -22.4375 5.039062 -30.683594 5.953125 -39.152344 C 10.304688 -76.015625 26.558594 -113.339844 59.761719 -131.425781 C 64.109375 -133.488281 68.230469 -135.089844 72.355469 -136.234375 C 73.957031 -136.464844 75.101562 -136.695312 76.246094 -136.695312 C 81.96875 -136.695312 84.945312 -133.257812 85.40625 -126.390625 C 85.863281 -123.414062 85.632812 -120.207031 84.488281 -116.773438 C 81.054688 -103.953125 71.894531 -90.898438 63.882812 -80.597656 C 62.738281 -79.453125 62.507812 -78.535156 62.964844 -77.390625 C 63.195312 -76.933594 63.882812 -76.703125 64.570312 -76.703125 C 66.171875 -76.703125 67.546875 -77.847656 68.460938 -79.453125 C 77.621094 -91.128906 87.007812 -103.492188 90.441406 -118.148438 C 91.585938 -122.496094 91.585938 -126.390625 90.671875 -130.054688 C 88.839844 -139.210938 84.03125 -142.648438 74.871094 -142.648438 C 54.496094 -140.355469 32.511719 -121.125 21.980469 -103.953125 C 11.449219 -87.921875 0 -56.097656 0 -36.636719 C -0.230469 -25.414062 1.601562 -16.484375 6.867188 -8.472656 C 12.363281 0.457031 21.75 4.351562 31.828125 4.351562 Z M 31.828125 4.351562 "/></g></g></g><g fill="#000000" fill-opacity="1"><g transform="translate(112.388944, 238.025924)"><g><path d="M -0.6875 3.890625 C 0.6875 3.890625 1.832031 3.207031 2.519531 2.0625 C 4.121094 -0.457031 5.496094 -2.519531 6.640625 -5.039062 C 8.699219 -8.929688 10.53125 -12.59375 12.363281 -16.257812 C 13.96875 -19.921875 15.796875 -23.582031 17.628906 -27.246094 C 20.378906 -32.511719 23.582031 -37.550781 27.933594 -41.902344 C 28.851562 -43.046875 29.765625 -44.191406 31.828125 -44.191406 C 32.511719 -43.273438 32.972656 -42.359375 33.429688 -41.441406 C 33.886719 -40.527344 34.574219 -39.613281 35.261719 -38.695312 C 37.78125 -35.261719 40.757812 -33.660156 44.648438 -33.660156 C 51.058594 -33.660156 60.675781 -41.214844 65.027344 -45.566406 C 65.714844 -46.25 66.402344 -47.167969 67.085938 -48.542969 C 67.546875 -49.457031 67.316406 -50.371094 66.402344 -51.289062 C 65.714844 -51.746094 65.253906 -51.976562 64.570312 -51.976562 C 64.109375 -51.976562 63.882812 -51.976562 63.652344 -51.746094 C 62.507812 -51.058594 61.59375 -50.371094 60.675781 -49.457031 C 56.785156 -46.25 48.769531 -39.613281 44.648438 -39.613281 C 42.589844 -39.613281 40.757812 -40.984375 39.152344 -43.734375 C 38.695312 -44.417969 38.238281 -45.335938 38.007812 -46.480469 C 37.550781 -47.394531 37.09375 -48.3125 36.636719 -49 C 35.488281 -50.832031 34.117188 -51.746094 32.285156 -51.746094 C 31.367188 -51.746094 30.453125 -51.519531 29.535156 -51.058594 C 22.4375 -46.710938 16.945312 -38.925781 13.28125 -31.828125 L 4.351562 -13.738281 L 4.121094 -13.96875 L 4.351562 -13.96875 C 3.207031 -16.484375 3.890625 -18.773438 4.578125 -21.292969 C 6.410156 -28.164062 8.929688 -35.261719 11.90625 -42.359375 C 13.96875 -46.9375 16.027344 -51.519531 17.859375 -56.097656 C 18.546875 -57.929688 19.003906 -59.53125 19.003906 -61.132812 C 19.234375 -62.277344 18.773438 -62.964844 17.402344 -63.425781 L 16.714844 -63.425781 C 15.796875 -63.425781 15.113281 -63.195312 14.652344 -62.738281 C 13.96875 -61.820312 13.507812 -60.675781 12.820312 -59.53125 C 4.808594 -41.214844 -1.601562 -26.101562 -4.578125 -5.722656 C -4.808594 -4.578125 -4.808594 -3.664062 -4.808594 -2.746094 C -4.578125 -1.601562 -4.578125 -0.6875 -4.578125 0.230469 C -4.351562 2.0625 -3.433594 3.207031 -1.832031 3.664062 C -1.601562 3.664062 -1.375 3.664062 -1.375 3.890625 C -1.144531 3.890625 -0.914062 3.890625 -0.6875 3.890625 Z M -0.6875 3.890625 "/></g></g></g><g fill="#000000" fill-opacity="1"><g transform="translate(168.256891, 238.025924)"><g><path d="M 10.761719 -9.617188 C 26.558594 -9.617188 50.601562 -32.972656 61.59375 -44.648438 C 62.507812 -45.566406 63.195312 -46.25 63.425781 -46.9375 C 64.109375 -48.082031 63.882812 -49.226562 62.738281 -50.371094 C 62.277344 -50.832031 61.820312 -51.058594 61.132812 -51.058594 C 60.675781 -51.058594 59.988281 -50.832031 59.300781 -50.371094 C 58.617188 -49.6875 57.929688 -49 57.242188 -48.3125 C 56.554688 -47.625 55.640625 -46.9375 54.953125 -46.25 C 52.203125 -43.734375 49.457031 -41.214844 46.9375 -38.695312 C 44.191406 -36.175781 41.441406 -33.429688 38.695312 -30.910156 C 32.054688 -24.726562 21.523438 -17.402344 12.363281 -15.570312 C 8.015625 -15.570312 5.496094 -15.570312 4.578125 -20.835938 C 3.433594 -23.8125 3.207031 -26.332031 3.890625 -28.851562 C 4.121094 -29.996094 4.808594 -30.683594 5.722656 -30.910156 C 16.714844 -32.054688 31.140625 -45.566406 32.972656 -56.785156 C 33.660156 -62.050781 30.683594 -65.253906 26.101562 -65.253906 C 25.875 -65.253906 25.414062 -65.253906 25.1875 -65.253906 C 24.957031 -65.027344 24.5 -65.027344 24.269531 -65.027344 C 12.136719 -63.195312 3.207031 -47.167969 -0.6875 -36.40625 C -1.601562 -32.972656 -2.519531 -29.765625 -2.289062 -25.875 C -2.519531 -23.355469 -1.832031 -20.605469 -0.914062 -18.089844 C 0.6875 -12.363281 4.578125 -9.617188 10.761719 -9.617188 Z M 8.699219 -37.78125 C 8.472656 -37.550781 8.015625 -37.78125 7.328125 -38.007812 C 7.097656 -38.007812 6.867188 -38.464844 6.867188 -39.152344 C 9.386719 -46.25 17.171875 -57.699219 24.726562 -58.84375 C 25.875 -59.074219 26.558594 -58.617188 26.789062 -57.011719 C 26.789062 -49.6875 14.652344 -40.984375 8.699219 -37.78125 Z M 8.699219 -37.78125 "/></g></g></g><g fill="#000000" fill-opacity="1"><g transform="translate(220.461412, 238.025924)"><g><path d="M 1.375 -2.289062 C 2.519531 -2.289062 3.433594 -2.746094 4.351562 -3.664062 C 6.867188 -5.722656 7.785156 -8.242188 9.386719 -10.992188 C 13.050781 -17.402344 16.714844 -24.042969 20.378906 -30.683594 C 23.355469 -35.949219 26.558594 -40.984375 30.453125 -45.566406 C 31.140625 -46.25 31.597656 -47.167969 32.285156 -48.3125 C 32.972656 -49.226562 33.660156 -49.457031 34.574219 -49.226562 C 35.71875 -49 36.40625 -48.082031 36.175781 -46.9375 C 35.949219 -45.792969 35.71875 -44.648438 35.71875 -43.734375 C 35.71875 -40.296875 35.488281 -36.863281 35.261719 -33.429688 C 35.261719 -29.765625 35.261719 -26.558594 36.863281 -23.125 C 38.007812 -21.523438 39.152344 -20.835938 40.757812 -20.835938 C 40.984375 -20.835938 41.671875 -21.066406 42.589844 -21.292969 C 44.191406 -21.980469 45.792969 -23.125 46.9375 -24.269531 C 48.082031 -25.414062 49.457031 -26.789062 50.601562 -27.933594 C 52.203125 -29.535156 54.035156 -31.367188 55.640625 -32.972656 C 57.242188 -34.574219 59.074219 -36.175781 61.132812 -37.320312 C 62.277344 -36.636719 63.195312 -35.488281 63.652344 -34.34375 C 63.882812 -33.199219 64.570312 -32.054688 65.253906 -30.910156 C 67.773438 -27.019531 70.980469 -25.1875 74.871094 -25.1875 C 76.703125 -25.1875 78.535156 -25.414062 80.136719 -26.101562 C 83.34375 -27.703125 86.089844 -29.308594 88.382812 -31.140625 L 102.121094 -42.816406 C 103.265625 -43.734375 104.410156 -44.878906 105.324219 -46.023438 C 106.929688 -47.625 106.929688 -49 105.554688 -50.371094 C 105.097656 -51.058594 104.410156 -51.519531 103.492188 -51.519531 C 102.804688 -51.519531 102.121094 -51.058594 100.976562 -50.371094 C 100.746094 -49.6875 100.289062 -49.457031 100.058594 -49.226562 C 95.25 -44.878906 89.984375 -40.296875 84.71875 -35.949219 C 82.65625 -34.34375 77.847656 -31.140625 74.871094 -31.140625 C 73.5 -31.140625 72.125 -31.828125 70.980469 -33.199219 C 70.0625 -34.34375 69.378906 -35.488281 68.691406 -37.09375 C 68.460938 -37.78125 68.230469 -38.464844 68.003906 -39.152344 C 67.773438 -39.839844 67.316406 -40.527344 66.859375 -41.214844 C 65.941406 -43.273438 64.339844 -44.191406 62.277344 -44.191406 C 62.050781 -44.191406 61.132812 -43.960938 59.988281 -43.734375 C 58.617188 -43.046875 57.242188 -42.128906 55.640625 -40.984375 C 54.496094 -39.839844 53.121094 -38.464844 51.976562 -37.320312 C 50.601562 -36.175781 49.226562 -34.804688 48.082031 -33.660156 L 43.734375 -29.535156 C 43.503906 -29.535156 43.503906 -29.535156 43.273438 -29.308594 C 42.128906 -29.308594 41.441406 -29.765625 41.441406 -30.683594 C 41.441406 -31.367188 41.441406 -32.285156 41.441406 -33.199219 C 41.214844 -34.117188 41.214844 -35.03125 41.214844 -35.949219 C 41.441406 -37.78125 41.441406 -39.613281 41.671875 -41.441406 C 41.902344 -43.273438 41.902344 -45.105469 41.902344 -47.167969 C 42.128906 -49.914062 42.128906 -52.664062 40.984375 -55.179688 C 40.296875 -57.242188 38.925781 -58.386719 36.863281 -58.386719 C 36.175781 -58.386719 35.261719 -58.15625 34.34375 -57.699219 C 28.164062 -53.347656 23.125 -46.480469 19.234375 -40.296875 C 17.171875 -37.09375 15.339844 -33.886719 13.507812 -30.683594 C 11.675781 -27.246094 9.84375 -24.042969 8.015625 -20.835938 C 7.785156 -20.605469 7.554688 -20.148438 7.328125 -19.691406 C 7.097656 -19.234375 6.867188 -19.003906 6.183594 -19.003906 C 5.722656 -19.003906 5.265625 -19.003906 5.039062 -19.234375 C 5.265625 -19.691406 5.265625 -20.148438 5.265625 -20.605469 C 5.039062 -21.066406 5.039062 -21.523438 5.265625 -22.210938 C 9.160156 -40.527344 14.425781 -58.84375 22.4375 -75.558594 C 22.898438 -76.703125 23.355469 -77.621094 24.042969 -78.765625 C 24.5 -79.679688 24.5 -80.824219 24.269531 -81.96875 C 24.042969 -82.65625 22.898438 -83.800781 22.210938 -83.800781 C 21.980469 -83.800781 21.523438 -83.574219 20.835938 -83.34375 C 15.796875 -80.824219 5.722656 -47.855469 3.890625 -41.902344 C 0.457031 -30.222656 -2.289062 -18.089844 -2.289062 -5.953125 C -2.289062 -4.121094 -1.375 -2.976562 0.230469 -2.519531 C 0.457031 -2.289062 0.914062 -2.289062 1.375 -2.289062 Z M 1.375 -2.289062 "/></g></g></g><g fill="#000000" fill-opacity="1"><g transform="translate(315.482752, 238.025924)"><g><path d="M 9.617188 -11.449219 C 11.675781 -11.449219 13.96875 -12.136719 16.027344 -13.28125 C 19.003906 -15.339844 21.292969 -17.859375 22.898438 -21.292969 C 24.957031 -25.644531 25.414062 -29.996094 24.5 -34.34375 C 23.8125 -38.238281 23.582031 -38.238281 27.933594 -38.925781 C 32.742188 -39.382812 37.09375 -40.527344 41.441406 -42.128906 C 45.566406 -43.734375 49.914062 -45.105469 54.265625 -46.710938 C 56.324219 -47.394531 56.785156 -48.769531 56.097656 -50.371094 C 55.410156 -51.519531 54.265625 -52.203125 53.121094 -52.203125 L 49.457031 -51.289062 C 47.394531 -50.601562 45.335938 -49.6875 43.273438 -49 C 41.214844 -48.3125 38.925781 -47.394531 36.863281 -46.710938 C 32.511719 -45.335938 28.390625 -44.648438 24.042969 -44.648438 L 16.945312 -44.648438 C 15.339844 -44.417969 13.96875 -42.816406 14.652344 -41.214844 C 15.339844 -39.613281 16.027344 -38.238281 16.945312 -36.636719 C 20.378906 -31.367188 19.234375 -26.558594 16.257812 -21.75 C 14.195312 -18.089844 11.90625 -17.628906 8.242188 -17.628906 C 5.265625 -18.316406 3.664062 -21.066406 3.664062 -25.414062 C 3.664062 -27.933594 3.890625 -30.222656 4.578125 -32.054688 C 5.496094 -35.949219 7.097656 -39.839844 9.160156 -43.734375 C 11.675781 -47.625 13.738281 -51.519531 19.003906 -52.433594 C 20.605469 -52.664062 20.605469 -53.808594 20.378906 -55.410156 C 20.148438 -56.554688 19.460938 -57.472656 17.859375 -57.699219 C 16.714844 -57.699219 15.796875 -57.472656 14.882812 -57.011719 C 5.953125 -53.578125 -1.601562 -36.40625 -2.289062 -27.019531 C -2.519531 -25.1875 -2.289062 -23.125 -1.832031 -21.066406 C -0.6875 -14.882812 4.121094 -11.449219 9.617188 -11.449219 Z M 9.617188 -11.449219 "/></g></g></g></svg>